<svg xmlns="http://www.w3.org/2000/svg" width="100%" height="auto" viewBox="0 0 782 782" version="1.1" preserveAspectRatio="xMidYMid meet" style="max-width: 100%; max-height: 70vh;">

  <circle cx="391" cy="391" r="391" fill="#ffffff"/>

  <path d="M 382.934 56.659 C 353.774 82.779, 323.793 113.751, 299.515 142.835 C 219.747 238.395, 177.956 335.278, 178.017 424.500 C 178.031 444.279, 178.023 444.254, 183.878 443.447 C 196.166 441.752, 211.957 435.695, 219.966 429.604 C 227.145 424.144, 235.005 415.673, 240.962 406.976 C 253.207 389.097, 262.395 381.331, 272.536 380.284 C 285.509 378.945, 295.037 386.026, 303.035 402.947 C 311.826 421.545, 317.519 432.385, 318.691 432.753 C 322.857 434.061, 329.451 407.725, 335.029 367.500 C 344.921 296.175, 346.457 286.872, 350.552 273.500 C 355.185 258.368, 361.143 251, 368.744 251 C 377.829 251, 382.973 259.089, 388.459 282 C 392.752 299.930, 395.151 318.383, 403.994 401.500 C 410.373 461.454, 413.899 487.916, 418.188 508 C 420.490 518.783, 423.679 528, 425.107 528 C 428.347 528, 436.422 498.449, 444.510 457 C 450.084 428.436, 459.186 396.565, 465.198 384.560 C 473.432 368.119, 484.347 361.305, 498 364.084 C 507.993 366.117, 515.839 372.156, 526.418 385.958 C 545.433 410.764, 563.392 420, 592.611 420 L 604.306 420 603.691 405.750 C 601.760 360.999, 584.611 303.963, 557.764 253 C 528.075 196.642, 482.873 137.523, 428.848 84.389 C 414.402 70.182, 392.195 50, 391.007 50 C 390.655 50, 387.022 52.997, 382.934 56.659 M 366.556 279.500 C 365.625 282.800, 364.673 286.087, 364.442 286.805 C 363.785 288.841, 359.314 317.841, 357.012 335 C 351.824 373.671, 346.141 408.421, 342.897 421.298 C 339.111 436.327, 333.823 446.308, 327.650 450.072 C 321.260 453.968, 311.317 451.542, 305.220 444.598 C 301.927 440.847, 293.713 425.184, 288.523 412.759 C 284.638 403.458, 279.843 398, 275.557 398 C 272.571 398, 268.192 400.453, 265.500 403.635 C 264.950 404.285, 260.450 410.141, 255.500 416.648 C 244.426 431.206, 237.435 438.296, 227.633 444.910 C 206.594 459.107, 181.858 464.260, 152.500 460.562 C 131.084 457.865, 108.230 451.372, 90.500 442.947 C 79.258 437.605, 79.502 437.691, 81.112 439.664 C 83.745 442.891, 106.530 457.184, 117.500 462.491 C 137.306 472.071, 153.873 476.673, 172.208 477.687 L 182.916 478.279 184.041 483.890 C 189.545 511.338, 200.574 542.042, 214.464 568.587 C 230.724 599.662, 247.619 623.041, 272.388 648.740 C 296.864 674.137, 320.772 693.320, 349.927 710.957 C 362.524 718.578, 388.771 732, 391.076 732 C 391.648 732, 398.503 728.893, 406.308 725.095 C 451.813 702.955, 494.169 669.299, 528.501 628 C 556.435 594.397, 579.662 551.005, 591.636 510.051 C 596.093 494.809, 602.959 461.145, 602.994 454.364 C 602.997 453.738, 605.138 452.917, 607.750 452.538 C 619.971 450.767, 642.528 441.005, 658.500 430.577 C 668.322 424.164, 681.167 413.896, 691.518 404.185 C 703.912 392.556, 703.679 391.840, 690.368 400.645 C 661.944 419.448, 629.507 432.836, 604.500 436.086 C 593.542 437.510, 576.132 436.805, 566 434.528 C 555.439 432.153, 539.947 424.390, 531.485 417.233 C 525.040 411.781, 514.636 400.252, 507.426 390.572 C 503.863 385.790, 496.585 381, 492.881 381 C 488.688 381, 484.478 385.322, 480.492 393.720 C 473.540 408.367, 468.766 425.778, 459.544 470.127 C 453.164 500.808, 449.983 513.658, 446.331 523.500 C 439.762 541.201, 434.297 547, 424.185 547 C 416.013 547, 411.764 542.254, 406.275 526.995 C 399.329 507.688, 394.508 475.934, 385.551 390.500 C 378.294 321.286, 373.707 288.590, 369.696 277.500 L 368.249 273.500 366.556 279.500"
    stroke="none"
    fill="#154b2c"
    fill-rule="evenodd"/>

</svg>
